<mxfile host="app.diagrams.net" agent="Mozilla/5.0 (X11; Linux x86_64; rv:139.0) Gecko/20100101 Firefox/139.0" version="27.1.6">
  <diagram name="Page-1" id="S18XIsexviWcKxD6jYNK">
    <mxGraphModel dx="1607" dy="716" grid="0" gridSize="10" guides="1" tooltips="1" connect="1" arrows="1" fold="1" page="0" pageScale="1" pageWidth="291" pageHeight="413" math="1" shadow="0">
      <root>
        <mxCell id="0" />
        <mxCell id="1" parent="0" />
        <mxCell id="d6yPqGaneU_uJJpBiUnx-13" style="edgeStyle=orthogonalEdgeStyle;rounded=0;orthogonalLoop=1;jettySize=auto;html=1;entryX=0;entryY=0.5;entryDx=0;entryDy=0;" edge="1" parent="1" source="d6yPqGaneU_uJJpBiUnx-1" target="d6yPqGaneU_uJJpBiUnx-5">
          <mxGeometry relative="1" as="geometry" />
        </mxCell>
        <mxCell id="d6yPqGaneU_uJJpBiUnx-1" value="Encoder" style="rounded=0;whiteSpace=wrap;html=1;" vertex="1" parent="1">
          <mxGeometry x="110" y="185" width="90" height="50" as="geometry" />
        </mxCell>
        <mxCell id="d6yPqGaneU_uJJpBiUnx-3" style="edgeStyle=orthogonalEdgeStyle;rounded=0;orthogonalLoop=1;jettySize=auto;html=1;entryX=0;entryY=0.5;entryDx=0;entryDy=0;" edge="1" parent="1" source="d6yPqGaneU_uJJpBiUnx-2" target="d6yPqGaneU_uJJpBiUnx-1">
          <mxGeometry relative="1" as="geometry" />
        </mxCell>
        <mxCell id="d6yPqGaneU_uJJpBiUnx-2" value="" style="ellipse;whiteSpace=wrap;html=1;aspect=fixed;" vertex="1" parent="1">
          <mxGeometry x="-20" y="205" width="10" height="10" as="geometry" />
        </mxCell>
        <mxCell id="d6yPqGaneU_uJJpBiUnx-4" value="&lt;font&gt;Message&lt;/font&gt;" style="text;html=1;align=center;verticalAlign=middle;resizable=0;points=[];autosize=1;strokeColor=none;fillColor=none;" vertex="1" parent="1">
          <mxGeometry x="-40" y="170" width="70" height="30" as="geometry" />
        </mxCell>
        <mxCell id="d6yPqGaneU_uJJpBiUnx-31" style="edgeStyle=orthogonalEdgeStyle;rounded=0;orthogonalLoop=1;jettySize=auto;html=1;entryX=0;entryY=0.5;entryDx=0;entryDy=0;" edge="1" parent="1" source="d6yPqGaneU_uJJpBiUnx-5" target="d6yPqGaneU_uJJpBiUnx-25">
          <mxGeometry relative="1" as="geometry" />
        </mxCell>
        <mxCell id="d6yPqGaneU_uJJpBiUnx-5" value="Error Control" style="rounded=0;whiteSpace=wrap;html=1;" vertex="1" parent="1">
          <mxGeometry x="280" y="185" width="110" height="50" as="geometry" />
        </mxCell>
        <mxCell id="d6yPqGaneU_uJJpBiUnx-16" style="edgeStyle=orthogonalEdgeStyle;rounded=0;orthogonalLoop=1;jettySize=auto;html=1;entryX=0;entryY=0.5;entryDx=0;entryDy=0;" edge="1" parent="1" source="d6yPqGaneU_uJJpBiUnx-6" target="d6yPqGaneU_uJJpBiUnx-7">
          <mxGeometry relative="1" as="geometry" />
        </mxCell>
        <mxCell id="d6yPqGaneU_uJJpBiUnx-6" value="Modulation" style="rounded=0;whiteSpace=wrap;html=1;" vertex="1" parent="1">
          <mxGeometry x="660" y="185" width="90" height="50" as="geometry" />
        </mxCell>
        <mxCell id="d6yPqGaneU_uJJpBiUnx-17" style="edgeStyle=orthogonalEdgeStyle;rounded=0;orthogonalLoop=1;jettySize=auto;html=1;entryX=0.5;entryY=0;entryDx=0;entryDy=0;" edge="1" parent="1" source="d6yPqGaneU_uJJpBiUnx-7" target="d6yPqGaneU_uJJpBiUnx-12">
          <mxGeometry relative="1" as="geometry" />
        </mxCell>
        <mxCell id="d6yPqGaneU_uJJpBiUnx-7" value="Multiplexing" style="rounded=0;whiteSpace=wrap;html=1;" vertex="1" parent="1">
          <mxGeometry x="828" y="185" width="90" height="50" as="geometry" />
        </mxCell>
        <mxCell id="d6yPqGaneU_uJJpBiUnx-22" style="edgeStyle=orthogonalEdgeStyle;rounded=0;orthogonalLoop=1;jettySize=auto;html=1;" edge="1" parent="1" source="d6yPqGaneU_uJJpBiUnx-8">
          <mxGeometry relative="1" as="geometry">
            <mxPoint x="-10" y="438" as="targetPoint" />
          </mxGeometry>
        </mxCell>
        <mxCell id="d6yPqGaneU_uJJpBiUnx-8" value="Decoder" style="rounded=0;whiteSpace=wrap;html=1;" vertex="1" parent="1">
          <mxGeometry x="110.5" y="413" width="90" height="50" as="geometry" />
        </mxCell>
        <mxCell id="d6yPqGaneU_uJJpBiUnx-21" style="edgeStyle=orthogonalEdgeStyle;rounded=0;orthogonalLoop=1;jettySize=auto;html=1;entryX=1;entryY=0.5;entryDx=0;entryDy=0;" edge="1" parent="1" source="d6yPqGaneU_uJJpBiUnx-9" target="d6yPqGaneU_uJJpBiUnx-8">
          <mxGeometry relative="1" as="geometry" />
        </mxCell>
        <mxCell id="d6yPqGaneU_uJJpBiUnx-9" value="Error Detection \ Correction" style="rounded=0;whiteSpace=wrap;html=1;" vertex="1" parent="1">
          <mxGeometry x="280.5" y="413" width="110" height="50" as="geometry" />
        </mxCell>
        <mxCell id="d6yPqGaneU_uJJpBiUnx-28" style="edgeStyle=orthogonalEdgeStyle;rounded=0;orthogonalLoop=1;jettySize=auto;html=1;entryX=1;entryY=0.5;entryDx=0;entryDy=0;" edge="1" parent="1" source="d6yPqGaneU_uJJpBiUnx-10" target="d6yPqGaneU_uJJpBiUnx-27">
          <mxGeometry relative="1" as="geometry" />
        </mxCell>
        <mxCell id="d6yPqGaneU_uJJpBiUnx-10" value="Demodulation" style="rounded=0;whiteSpace=wrap;html=1;" vertex="1" parent="1">
          <mxGeometry x="660.5" y="413" width="90" height="50" as="geometry" />
        </mxCell>
        <mxCell id="d6yPqGaneU_uJJpBiUnx-19" style="edgeStyle=orthogonalEdgeStyle;rounded=0;orthogonalLoop=1;jettySize=auto;html=1;entryX=1;entryY=0.5;entryDx=0;entryDy=0;" edge="1" parent="1" source="d6yPqGaneU_uJJpBiUnx-11" target="d6yPqGaneU_uJJpBiUnx-10">
          <mxGeometry relative="1" as="geometry" />
        </mxCell>
        <mxCell id="d6yPqGaneU_uJJpBiUnx-11" value="Demultiplexer" style="rounded=0;whiteSpace=wrap;html=1;" vertex="1" parent="1">
          <mxGeometry x="828" y="413" width="90" height="50" as="geometry" />
        </mxCell>
        <mxCell id="d6yPqGaneU_uJJpBiUnx-18" style="edgeStyle=orthogonalEdgeStyle;rounded=0;orthogonalLoop=1;jettySize=auto;html=1;entryX=0.5;entryY=0;entryDx=0;entryDy=0;" edge="1" parent="1" source="d6yPqGaneU_uJJpBiUnx-12" target="d6yPqGaneU_uJJpBiUnx-11">
          <mxGeometry relative="1" as="geometry" />
        </mxCell>
        <mxCell id="d6yPqGaneU_uJJpBiUnx-12" value="Channel" style="rounded=0;whiteSpace=wrap;html=1;" vertex="1" parent="1">
          <mxGeometry x="828" y="290" width="90" height="50" as="geometry" />
        </mxCell>
        <mxCell id="d6yPqGaneU_uJJpBiUnx-24" value="" style="ellipse;whiteSpace=wrap;html=1;aspect=fixed;" vertex="1" parent="1">
          <mxGeometry x="-20" y="433" width="10" height="10" as="geometry" />
        </mxCell>
        <mxCell id="d6yPqGaneU_uJJpBiUnx-26" style="edgeStyle=orthogonalEdgeStyle;rounded=0;orthogonalLoop=1;jettySize=auto;html=1;entryX=0;entryY=0.5;entryDx=0;entryDy=0;" edge="1" parent="1" source="d6yPqGaneU_uJJpBiUnx-25" target="d6yPqGaneU_uJJpBiUnx-6">
          <mxGeometry relative="1" as="geometry" />
        </mxCell>
        <mxCell id="d6yPqGaneU_uJJpBiUnx-25" value="Interleaver" style="rounded=0;whiteSpace=wrap;html=1;" vertex="1" parent="1">
          <mxGeometry x="472" y="185" width="110" height="50" as="geometry" />
        </mxCell>
        <mxCell id="d6yPqGaneU_uJJpBiUnx-29" style="edgeStyle=orthogonalEdgeStyle;rounded=0;orthogonalLoop=1;jettySize=auto;html=1;entryX=1;entryY=0.5;entryDx=0;entryDy=0;" edge="1" parent="1" source="d6yPqGaneU_uJJpBiUnx-27" target="d6yPqGaneU_uJJpBiUnx-9">
          <mxGeometry relative="1" as="geometry" />
        </mxCell>
        <mxCell id="d6yPqGaneU_uJJpBiUnx-27" value="deinterleaver" style="rounded=0;whiteSpace=wrap;html=1;" vertex="1" parent="1">
          <mxGeometry x="472" y="413" width="110" height="50" as="geometry" />
        </mxCell>
        <mxCell id="d6yPqGaneU_uJJpBiUnx-33" value="" style="rounded=0;whiteSpace=wrap;html=1;fillColor=none;dashed=1;" vertex="1" parent="1">
          <mxGeometry x="-40" y="106" width="980" height="159" as="geometry" />
        </mxCell>
        <mxCell id="d6yPqGaneU_uJJpBiUnx-32" value="&lt;font&gt;Message&lt;/font&gt;" style="text;html=1;align=center;verticalAlign=middle;resizable=0;points=[];autosize=1;strokeColor=none;fillColor=none;" vertex="1" parent="1">
          <mxGeometry x="-40" y="400" width="70" height="30" as="geometry" />
        </mxCell>
        <mxCell id="d6yPqGaneU_uJJpBiUnx-34" value="" style="rounded=0;whiteSpace=wrap;html=1;fillColor=none;dashed=1;" vertex="1" parent="1">
          <mxGeometry x="-40" y="365" width="980" height="168" as="geometry" />
        </mxCell>
        <mxCell id="d6yPqGaneU_uJJpBiUnx-36" value="&lt;b&gt;&lt;font style=&quot;font-size: 20px;&quot;&gt;$$Tx$$&lt;/font&gt;&lt;/b&gt;" style="text;html=1;align=center;verticalAlign=middle;resizable=0;points=[];autosize=1;strokeColor=none;fillColor=none;" vertex="1" parent="1">
          <mxGeometry x="24.5" y="117" width="86" height="36" as="geometry" />
        </mxCell>
        <mxCell id="d6yPqGaneU_uJJpBiUnx-37" value="&lt;b&gt;&lt;font style=&quot;font-size: 20px;&quot;&gt;$$Rx$$&lt;/font&gt;&lt;/b&gt;" style="text;html=1;align=center;verticalAlign=middle;resizable=0;points=[];autosize=1;strokeColor=none;fillColor=none;" vertex="1" parent="1">
          <mxGeometry x="23" y="471" width="88" height="36" as="geometry" />
        </mxCell>
      </root>
    </mxGraphModel>
  </diagram>
</mxfile>
